<svg width="16" height="21" viewBox="0 0 16 21" fill="none" xmlns="http://www.w3.org/2000/svg">
<path d="M9.17 2.01493L14 6.88097V18.1343H2V2.01493H9.17ZM10 0H2C0.9 0 0 0.906716 0 2.01493V18.1343C0 19.2425 0.9 20.1493 2 20.1493H14C15.1 20.1493 16 19.2425 16 18.1343V6.04478L10 0ZM8 12.0896C9.1 12.0896 10 11.1828 10 10.0746C10 8.96642 9.1 8.0597 8 8.0597C6.9 8.0597 6 8.96642 6 10.0746C6 11.1828 6.9 12.0896 8 12.0896ZM12 15.5452C12 14.7291 11.52 14.0037 10.78 13.6813C9.93 13.3086 8.99 13.097 8 13.097C7.01 13.097 6.07 13.3086 5.22 13.6813C4.48 14.0037 4 14.7291 4 15.5452V16.1194H12V15.5452Z" fill="white"/>
</svg>
