<svg width="30" height="26" viewBox="0 0 30 26" fill="none" xmlns="http://www.w3.org/2000/svg">
<path d="M26.9775 6.80833C26.69 5.9125 25.8425 5.20625 24.7675 4.96667C22.8175 4.53125 15 4.53125 15 4.53125C15 4.53125 7.1825 4.53125 5.2325 4.96667C4.1575 5.20625 3.31 5.9125 3.0225 6.80833C2.5 8.43333 2.5 12.8646 2.5 12.8646C2.5 12.8646 2.5 17.2958 3.0225 18.9208C3.31 19.8167 4.1575 20.5229 5.2325 20.7625C7.1825 21.1979 15 21.1979 15 21.1979C15 21.1979 22.8175 21.1979 24.7675 20.7625C25.8437 20.5229 26.69 19.8167 26.9775 18.9208C27.5 17.2958 27.5 12.8646 27.5 12.8646C27.5 12.8646 27.5 8.43333 26.9775 6.80833ZM12.5 15.5708V10.1583C12.5 9.75729 13.0212 9.50729 13.4375 9.70729L19.0625 12.4135C19.4788 12.6135 19.4788 13.1156 19.0625 13.3156L13.4375 16.0219C13.0212 16.2229 12.5 15.9719 12.5 15.5708Z" fill="#666666"/>
</svg>
