<svg width="24" height="25" viewBox="0 0 24 25" fill="none" xmlns="http://www.w3.org/2000/svg">
<path d="M24 4.41504C23.1016 4.81348 22.1992 5.11426 21.1992 5.21582C22.1992 4.61426 23 3.61426 23.3984 2.5127C22.3984 3.11426 21.3984 3.5127 20.3008 3.71582C19.3008 2.71582 18 2.11426 16.6016 2.11426C13.8984 2.11426 11.6992 4.31348 11.6992 7.0127C11.6992 7.41504 11.6992 7.81348 11.8008 8.11426C7.69922 7.91504 4.10156 6.0127 1.69922 3.0127C1.19922 3.71582 1 4.61426 1 5.5127C1 7.21582 1.89844 8.71582 3.19922 9.61426C2.39844 9.5127 1.60156 9.31348 1 9.0127C1 9.0127 1 9.0127 1 9.11426C1 11.5127 2.69922 13.5127 4.89844 13.915C4.5 14.0127 4.10156 14.1143 3.60156 14.1143C3.30078 14.1143 3 14.1143 2.69922 14.0127C3.30078 16.0127 5.10156 17.415 7.30078 17.415C5.60156 18.7158 3.5 19.5127 1.19922 19.5127C0.800781 19.5127 0.398438 19.5127 0 19.415C2.19922 20.8135 4.80078 21.6143 7.5 21.6143C16.6016 21.6143 21.5 14.1143 21.5 7.61426C21.5 7.41504 21.5 7.21582 21.5 7.0127C22.5 6.31348 23.3008 5.41504 24 4.41504Z" fill="#666666"/>
</svg>
