<svg width="25" height="25" viewBox="0 0 25 25" fill="none" xmlns="http://www.w3.org/2000/svg">
<path d="M16 6.14422H18.5C18.776 6.14422 19 5.92918 19 5.66422V2.43046C19 2.17894 18.7985 1.96966 18.5375 1.9519C17.742 1.89766 16.188 1.82422 15.0705 1.82422C12 1.82422 10 3.59062 10 6.80086V9.98422H6.5C6.224 9.98422 6 10.1993 6 10.4642V13.8242C6 14.0892 6.224 14.3042 6.5 14.3042H10V23.4242C10 23.6892 10.224 23.9042 10.5 23.9042H14C14.276 23.9042 14.5 23.6892 14.5 23.4242V14.3042H18.111C18.366 14.3042 18.58 14.1204 18.608 13.877L18.997 10.517C19.03 10.2329 18.798 9.98422 18.5 9.98422H14.5V7.58422C14.5 6.78886 15.1715 6.14422 16 6.14422Z" fill="#666666"/>
</svg>
