<svg width="24" height="24" viewBox="0 0 24 24" fill="none" xmlns="http://www.w3.org/2000/svg">
<path d="M8.18703 1.49414C4.88883 1.49414 2.20703 4.17594 2.20703 7.47414V15.7541C2.20703 19.0523 4.88883 21.7341 8.18703 21.7341H16.467C19.7652 21.7341 22.447 19.0523 22.447 15.7541V7.47414C22.447 4.17594 19.7652 1.49414 16.467 1.49414H8.18703ZM17.847 5.17414C18.353 5.17414 18.767 5.58814 18.767 6.09414C18.767 6.60014 18.353 7.01414 17.847 7.01414C17.341 7.01414 16.927 6.60014 16.927 6.09414C16.927 5.58814 17.341 5.17414 17.847 5.17414ZM12.327 6.55414C15.1192 6.55414 17.387 8.82194 17.387 11.6141C17.387 14.4063 15.1192 16.6741 12.327 16.6741C9.53483 16.6741 7.26703 14.4063 7.26703 11.6141C7.26703 8.82194 9.53483 6.55414 12.327 6.55414ZM12.327 7.47414C10.0454 7.47414 8.18703 9.33254 8.18703 11.6141C8.18703 13.8957 10.0454 15.7541 12.327 15.7541C14.6086 15.7541 16.467 13.8957 16.467 11.6141C16.467 9.33254 14.6086 7.47414 12.327 7.47414Z" fill="#666666"/>
</svg>
