<svg width="24" height="25" viewBox="0 0 24 25" fill="none" xmlns="http://www.w3.org/2000/svg">
<path d="M7.19922 20.6146H3.19922V8.61465H7.19922V20.6146ZM5.20002 7.01465C4.09362 7.01465 3.19922 6.11785 3.19922 5.01385C3.19922 3.90985 4.09522 3.01465 5.20002 3.01465C6.30242 3.01465 7.19922 3.91145 7.19922 5.01385C7.19922 6.11785 6.30242 7.01465 5.20002 7.01465ZM21.5992 20.6146H17.7536V14.7746C17.7536 13.3818 17.7272 11.5906 15.7544 11.5906C13.752 11.5906 13.444 13.1074 13.444 14.6738V20.6146H9.59922V8.60585H13.2904V10.2466H13.3424C13.856 9.30265 15.1112 8.30745 16.9832 8.30745C20.8792 8.30745 21.5992 10.7946 21.5992 14.0282V20.6146Z" fill="#666666"/>
</svg>
