<svg width="28" height="143" viewBox="0 0 28 143" fill="none" xmlns="http://www.w3.org/2000/svg">
<path d="M22.8233 14.962V0L27.5781 0V13.5038L22.8233 14.962Z" fill="white"/>
<path d="M0.0302815 122.026L0.0302815 142.25H4.78516L4.78516 123.469L0.0302815 122.026Z" fill="white"/>
<path d="M0.0315533 33.8715V16.9442L24.5192 9.479L27.5781 13.5048L4.78643 20.4628V30.3846L27.5781 37.5803L27.5781 66.1096L22.8233 64.6673L22.8233 41.0672L0.0315533 33.8715Z" fill="white"/>
<path d="M0.0628033 134.325V121.946L22.8545 115.004V105.066L0.0311031 97.8706V92.8779L27.6094 101.579V118.523L4.81768 125.465V134.325H0.0628033Z" fill="white"/>
<path d="M11.4287 61.0686L11.4129 40.48L16.1677 41.9698L16.1836 62.5584L11.4287 61.0686Z" fill="white"/>
<path d="M0.0302815 57.4702L0.0302815 36.8657L4.78516 38.3714L4.78516 58.96L0.0302815 57.4702Z" fill="white"/>
<path d="M0.0313282 66.2348V61.2422L27.5779 69.9436L27.5938 98.7106L22.823 97.2207V73.4305L0.0313282 66.2348Z" fill="white"/>
<path d="M0.00117111 90.0418L0.0645695 85.0333L11.4287 88.9164V74.4141L16.1836 75.9832V95.1136L0.00117111 90.0418Z" fill="white"/>
<path d="M11.4287 120.854V99.1714L16.1836 101.882V118.143L11.4287 120.854Z" fill="white"/>
</svg>
