<svg width="18" height="19" viewBox="0 0 18 19" fill="none" xmlns="http://www.w3.org/2000/svg">
<path d="M10.25 13.8425C10.25 14.5377 9.72 15.1119 9 15.1119C8.3 15.1119 7.74 14.5478 7.74 13.8425C7.74 13.1272 8.3 12.5832 9 12.5832C9.71 12.5832 10.25 13.1373 10.25 13.8425ZM8.99 3.02239C7.22 3.02239 6.01 4.18097 5.56 5.53097L7.2 6.22612C7.42 5.55112 7.94 4.73507 9 4.73507C10.62 4.73507 10.94 6.26642 10.37 7.08246C9.83 7.85821 8.9 8.38209 8.41 9.25858C8.02 9.95373 8.1 10.7597 8.1 11.2534H9.92C9.92 10.3164 9.99 10.125 10.14 9.83284C10.53 9.10746 11.25 8.76493 12.01 7.64664C12.69 6.63918 12.43 5.26903 11.99 4.54366C11.48 3.69739 10.47 3.02239 8.99 3.02239ZM16 2.01493H2V16.1194H16V2.01493ZM16 0C17.1 0 18 0.906716 18 2.01493V16.1194C18 17.2276 17.1 18.1343 16 18.1343H2C0.9 18.1343 0 17.2276 0 16.1194V2.01493C0 0.906716 0.9 0 2 0H16Z" fill="white"/>
</svg>
