<svg xmlns="http://www.w3.org/2000/svg" viewBox="0 0 89.75 17.42"><defs><style>.cls-1{fill:#231f20;}</style></defs><g id="Layer_2" data-name="Layer 2"><g id="Layer_1-2" data-name="Layer 1"><polygon class="cls-1" points="9.44 3.02 0 3.02 0 0.02 8.52 0.02 9.44 3.02"/><polygon class="cls-1" points="76.99 17.4 89.75 17.4 89.75 14.4 77.9 14.4 76.99 17.4"/><polygon class="cls-1" points="21.37 17.4 10.69 17.4 5.98 1.95 8.52 0.02 12.91 14.4 19.17 14.4 23.71 0.02 41.71 0.02 40.8 3.02 25.91 3.02 21.37 17.4"/><polygon class="cls-1" points="84.75 17.38 76.94 17.38 72.56 3 66.29 3 61.75 17.4 58.6 17.4 64.09 0 74.78 0 79.16 14.38 84.75 14.38 84.75 17.38"/><polygon class="cls-1" points="38.53 10.21 25.54 10.22 26.48 7.22 39.47 7.21 38.53 10.21"/><polygon class="cls-1" points="36.26 17.4 23.26 17.4 24.21 14.4 37.2 14.4 36.26 17.4"/><polygon class="cls-1" points="41.79 17.4 38.64 17.4 44.13 0.02 62.28 0.01 61.34 3.02 46.33 3.02 41.79 17.4"/><polygon class="cls-1" points="56.81 17.42 53.65 17.38 56.1 10.21 46.95 10.21 47.94 7.21 60.01 7.21 56.81 17.42"/><polygon class="cls-1" points="76.25 10.21 62.57 10.21 64.28 7.21 74.54 7.21 76.25 10.21"/></g></g></svg>