<?xml version="1.0" standalone="no"?>
<!DOCTYPE svg PUBLIC "-//W3C//DTD SVG 1.0//EN" "http://www.w3.org/TR/2001/REC-SVG-20010904/DTD/svg10.dtd">
<svg xmlns="http://www.w3.org/2000/svg" xmlns:xlink="http://www.w3.org/1999/xlink" id="body_1" width="54" height="50">

<g transform="matrix(0.7605634 0 0 0.75757575 0 0)">
	<g transform="matrix(1 0 0 1 0 0)">
	</g>
    <path transform="matrix(1 0 0 1 0 0)"  d="M0 0.0649C 0 0.0649 17.6102 6.3242 35.3715 6.3853C 35.3715 6.4464 54.4133 5.9179 70.453995 0.0625C 70.5152 0.0625 68.6794 22.7855 57.198696 46.0095C 57.198696 46.0095 48.596794 63.3385 35.376297 65.783295C 35.3295 65.77609 23.682098 64.3967 14.436398 48.118694C 14.436398 48.118694 3.8128977 31.771194 0.01679802 0.062496185" stroke="none" fill="#434244" fill-rule="nonzero" />
	<g transform="matrix(1 0 0 1 0 0)">
	</g>
    <path transform="matrix(1 0 0 1 0 0)"  d="M2.5643 2.959C 6.0739 32.2769 15.895 47.3888 15.895 47.3888C 24.442902 62.440804 35.2546 63.7615 35.2546 63.7231C 47.4825 61.4605 55.4321 45.439 55.4321 45.439C 66.0459 23.9683 67.744896 2.9589996 67.6874 2.9589996C 52.8601 8.3734 35.2547 8.8612 35.2547 8.8C 18.8388 8.7485 2.554699 2.9614 2.554699 2.9614" stroke="none" fill="#000000" fill-rule="nonzero" />
	<g transform="matrix(1 0 0 1 0 0)">
	</g>
    <path transform="matrix(1 0 0 1 0 0)"  d="M6.9922 7.9766L13.686399 9.7742L21.2787 13.489201L32.3002 40.7818L38.0555 40.7818L49.0351 13.53L56.342 9.858L63.4439 7.9813995C 63.4439 7.9813995 59.4751 39.4156 45.3325 54.0722L45.3325 54.0722L38.4272 56.1167L31.9884 56.1167L25.2834 54.250698C 25.2834 54.250698 11.2631 40.0784 6.9922 7.9766z" stroke="none" fill="#434244" fill-rule="nonzero" />
	<g transform="matrix(1 0 0 1 0 0)">
	</g>
    <path transform="matrix(1 0 0 1 0 0)"  d="M7.5664 8.605L13.5508 10.149699L20.9848 13.886399L32.2233 41.3084L38.1394 41.288L49.3863 13.790499L56.3671 10.342699L62.7303 8.772699C 62.7303 8.772699 57.6692 40.4109 44.7125 53.833L44.7125 53.833L38.1418 55.7097L32.182602 55.7097L25.764103 53.8426C 25.764103 53.8426 11.4741 38.0079 7.5664 8.605z" stroke="none" fill="#231F20" fill-rule="nonzero" />
	<g transform="matrix(1 0 0 1 0 0)">
	</g>
    <path transform="matrix(1 0 0 1 0 0)"  d="M7.2188 2.4653L7.3087 2.4653L7.3087 2.5552L7.2188 2.5552L7.2188 2.4653z" stroke="none" fill="none" />
	<g transform="matrix(1 0 0 1 0 0)">
	</g>
    <path transform="matrix(1 0 0 1 0 0)"  d="M14.3438 10.3018L21.201 13.77L32.2225 41.307L38.1386 41.307L49.3867 13.789099L56.1421 10.301799L38.059402 50.8943L32.283703 50.8943L14.3438 10.3018z" stroke="#434244" stroke-width="3" fill="#232323" fill-rule="nonzero" />
	<g transform="matrix(1 0 0 1 0 0)">
	</g>
    <path transform="matrix(1 0 0 1 0 0)"  d="M9.1758 5.8267L9.2657 5.8267L9.2657 5.9166L9.1758 5.9166L9.1758 5.8267z" stroke="none" fill="none" />
	<g transform="matrix(1 0 0 1 0 0)">
	</g>
    <path transform="matrix(1 0 0 1 0 0)"  d="M7.5664 9.017L11.4489 18.165699L18.1539 20.092798L19.8325 24.101498L13.1071005 22.357798L14.7594 26.335297L21.3109 28.048996L22.9596 32.049297L16.4081 30.437498L17.9668 34.414997L24.5495 36.092697L26.1766 40.012695L19.6862 38.513496L21.2174 42.468296L27.7989 44.081295L29.391201 48.060097L22.8397 46.621998L25.7665 53.8424C 25.7665 53.8424 12.2606 40.8996 7.5664997 9.017101L7.5664997 9.017101L7.5664 9.017zM62.7336 9.0698L59.0334 18.2185L52.3284 20.1467L50.6497 24.1554L57.3847 22.4105L55.7312 26.388L49.179703 28.1018L47.5227 32.0997L54.070602 30.491402L52.511803 34.468903L45.9303 36.1467L44.3081 40.063103L50.7984 38.563904L49.2673 42.518604L42.6858 44.131706L41.089798 48.108006L47.642597 46.669907L44.8248 53.620705C 44.8248 53.620705 58.141296 41.564705 62.733597 9.069805z" stroke="none" fill="#D5E04B" fill-rule="nonzero" />
</g>
</svg>