<svg width="409" height="18" viewBox="0 0 409 18" fill="none" xmlns="http://www.w3.org/2000/svg">
<path d="M97.9727 17.5537L108.918 0.14209H117.277L128.707 17.5537H121.316L119.488 14.5988H106.577L105.132 17.5537H97.9727ZM118.137 11.1526L113.217 4.26741L108.304 11.1526H118.137Z" fill="white"/>
<path d="M264.539 17.6769L275.485 0.272461H283.844L295.28 17.6769H287.882L286.083 14.7219H273.151L271.67 17.6769H264.539ZM284.711 11.283L279.791 4.39778L274.87 11.283H284.711Z" fill="white"/>
<path d="M153.796 0.120361H147.402V17.1852H153.796V0.120361Z" fill="white"/>
<path d="M159.453 0.142036V17.1852H164.987V8.84785L173.722 17.1852H181.344V0.142036H175.319V11.1598L164.279 0.120361L159.453 0.142036Z" fill="white"/>
<path d="M186.012 0.294135V17.3301H191.546V8.99995L200.273 17.3301H207.895V0.294135H201.877V11.3046L190.838 0.272461L186.012 0.294135Z" fill="white"/>
<path d="M358.062 0.178069V17.214H363.597V8.87666L372.324 17.214H379.946V0.178069H373.921V11.1886L362.889 0.14917L358.062 0.178069Z" fill="white"/>
<path d="M218.612 0.120365H230.894C232.655 0.120365 234.343 0.81988 235.589 2.06504C236.834 3.31019 237.533 4.99897 237.533 6.75988V10.5384C237.533 12.2993 236.834 13.9881 235.589 15.2333C234.343 16.4785 232.655 17.178 230.894 17.178H218.612C217.739 17.1789 216.875 17.0079 216.069 16.6746C215.262 16.3414 214.529 15.8525 213.912 15.2359C213.295 14.6192 212.805 13.887 212.471 13.0809C212.137 12.2749 211.965 11.411 211.965 10.5384V6.75988C211.965 5.88736 212.137 5.02339 212.471 4.21738C212.805 3.41136 213.295 2.67911 213.912 2.06248C214.529 1.44585 215.262 0.956924 216.069 0.623681C216.875 0.290438 217.739 0.119416 218.612 0.120365ZM218.243 8.45049V8.69613C218.242 9.24513 218.35 9.78891 218.559 10.2964C218.768 10.8039 219.076 11.2651 219.464 11.6536C219.852 12.0421 220.312 12.3504 220.819 12.5607C221.326 12.771 221.87 12.8792 222.419 12.8792H226.602C227.712 12.8792 228.776 12.4385 229.56 11.654C230.345 10.8696 230.785 9.80557 230.785 8.69613V8.45049C230.785 7.90116 230.677 7.35718 230.467 6.84966C230.257 6.34214 229.949 5.88102 229.56 5.49258C229.172 5.10414 228.711 4.796 228.203 4.58578C227.695 4.37556 227.152 4.26736 226.602 4.26736H222.419C221.87 4.26736 221.326 4.3756 220.819 4.58591C220.312 4.79622 219.852 5.10446 219.464 5.493C219.076 5.88153 218.768 6.34274 218.559 6.85022C218.35 7.35769 218.242 7.9015 218.243 8.45049Z" fill="white"/>
<path d="M333.838 0.438477H346.12C347.882 0.440391 349.571 1.14152 350.816 2.38782C352.06 3.63412 352.76 5.32367 352.76 7.08525V10.8638C352.76 12.6247 352.06 14.3135 350.815 15.5586C349.57 16.8038 347.881 17.5033 346.12 17.5033H333.838C332.966 17.5043 332.102 17.3332 331.295 17C330.489 16.6668 329.756 16.1778 329.139 15.5612C328.521 14.9446 328.032 14.2123 327.697 13.4063C327.363 12.6003 327.191 11.7363 327.191 10.8638V7.08525C327.191 5.32242 327.892 3.6318 329.138 2.38529C330.385 1.13878 332.075 0.438477 333.838 0.438477ZM333.47 8.77584V9.05038C333.47 10.1579 333.91 11.22 334.693 12.0032C335.476 12.7863 336.538 13.2263 337.646 13.2263H341.829C342.381 13.232 342.928 13.1282 343.44 12.9209C343.952 12.7136 344.417 12.407 344.81 12.0186C345.202 11.6303 345.513 11.168 345.726 10.6585C345.939 10.149 346.048 9.60243 346.048 9.05038V8.80474C346.048 8.25541 345.94 7.71145 345.73 7.20393C345.519 6.69641 345.211 6.23526 344.823 5.84683C344.434 5.45839 343.973 5.15025 343.466 4.94003C342.958 4.72981 342.414 4.62161 341.865 4.62161H337.682C337.132 4.61685 336.587 4.72063 336.078 4.927C335.568 5.13337 335.105 5.43828 334.713 5.82423C334.322 6.21017 334.011 6.66956 333.797 7.17607C333.584 7.68257 333.473 8.22622 333.47 8.77584Z" fill="white"/>
<path d="M408.374 5.3728V5.06214C408.374 4.41542 408.246 3.77504 407.998 3.17764C407.751 2.58024 407.388 2.03755 406.93 1.58058C406.472 1.12362 405.929 0.761363 405.331 0.514533C404.734 0.267702 404.093 0.141145 403.446 0.142095H390.442C389.137 0.142095 387.885 0.660453 386.963 1.58314C386.04 2.50583 385.522 3.75727 385.522 5.06214V6.50709C385.522 7.46515 385.902 8.38397 386.58 9.06142C387.257 9.73887 388.176 10.1195 389.134 10.1195H401.98C403.107 10.1195 403.425 11.0298 403.425 12.1496C403.41 12.5494 403.259 12.9321 402.996 13.2335C402.733 13.5348 402.374 13.7363 401.98 13.8041H394.293C393.165 13.8041 392.262 13.2695 392.262 12.1496V11.7234H385.5V12.2363C385.499 12.883 385.626 13.5236 385.872 14.1213C386.119 14.7191 386.482 15.2624 386.939 15.72C387.395 16.1776 387.938 16.5407 388.536 16.7884C389.133 17.0361 389.773 17.1636 390.42 17.1636H403.02C405.737 17.1636 408.663 14.96 408.663 12.2363V11.102C408.663 10.144 408.282 9.22515 407.604 8.54769C406.927 7.87024 406.008 7.48965 405.05 7.48965H393.859C393.338 7.48965 392.838 7.28261 392.469 6.91408C392.101 6.54555 391.894 6.0457 391.894 5.52452C391.894 5.26645 391.945 5.01092 392.044 4.7725C392.142 4.53408 392.287 4.31743 392.469 4.13495C392.652 3.95247 392.869 3.80774 393.107 3.70898C393.345 3.61022 393.601 3.55938 393.859 3.55938H400.499C400.988 3.55938 401.457 3.75326 401.804 4.09855C402.151 4.44384 402.346 4.91243 402.348 5.40171L408.374 5.3728Z" fill="white"/>
<path d="M0.574219 0.142334H7.95068L15.7028 13.248L24.4303 0.142334H31.5611L20.9841 17.1855H11.0284L0.574219 0.142334Z" fill="white"/>
<path d="M36.9727 0.14209V17.1853H58.9865V14.1509H43.2437V10.4229H58.9865V7.71362H43.735V3.89896H58.9865V0.14209H36.9727Z" fill="white"/>
<path d="M65.504 8.47952C65.504 10.7789 66.4174 12.984 68.0432 14.6099C69.6691 16.2358 71.8743 17.1492 74.1736 17.1492H88.4064C89.8569 17.1492 91.248 16.573 92.2736 15.5474C93.2993 14.5217 93.8755 13.1306 93.8755 11.6801V8.63126H78.783V11.001H87.5177V11.2466C87.5177 11.8579 87.2749 12.4441 86.8427 12.8763C86.4105 13.3085 85.8243 13.5513 85.2131 13.5513H76.3844C75.763 13.5513 75.1476 13.4289 74.5735 13.1911C73.9993 12.9533 73.4777 12.6047 73.0382 12.1653C72.5988 11.7258 72.2502 11.2042 72.0124 10.63C71.7746 10.0559 71.6522 9.44053 71.6522 8.81909V8.7324C71.6522 7.47667 72.1506 6.27226 73.0378 5.38365C73.9251 4.49504 75.1287 3.99488 76.3844 3.99297H85.7043C85.7944 3.99297 85.8808 4.02874 85.9444 4.09242C86.0081 4.15611 86.0439 4.24247 86.0439 4.33253V6.08814H93.9044C93.9054 5.30385 93.7517 4.52707 93.4522 3.8022C93.1528 3.07734 92.7133 2.41862 92.1591 1.86371C91.6049 1.3088 90.9467 0.868577 90.2222 0.568223C89.4977 0.26787 88.7211 0.113281 87.9368 0.113281H73.8413C72.744 0.113275 71.6575 0.329875 70.6441 0.750672C69.6306 1.17147 68.7102 1.78818 67.9357 2.56543C67.1611 3.34269 66.5476 4.26522 66.1303 5.28009C65.713 6.29497 65.5002 7.38222 65.504 8.47952Z" fill="white"/>
<path d="M240.004 0.272461L251.195 17.1856H257.712L269.026 0.272461H261.895L255.01 11.1601L247.258 0.272461H240.004Z" fill="white"/>
<path d="M292.879 0.14209H312.711V5.09826H305.797V17.1853H299.432V5.09826H292.879V0.14209Z" fill="white"/>
<path d="M322.305 0.272461H316.215V17.1856H322.305V0.272461Z" fill="white"/>
</svg>
