<svg width="18" height="17" viewBox="0 0 18 17" fill="none" xmlns="http://www.w3.org/2000/svg">
<path d="M15.92 1.01754C15.72 0.423135 15.16 0 14.5 0H3.5C2.84 0 2.29 0.423135 2.08 1.01754L0 7.05224V15.1119C0 15.666 0.45 16.1194 1 16.1194H2C2.55 16.1194 3 15.666 3 15.1119V14.1045H15V15.1119C15 15.666 15.45 16.1194 16 16.1194H17C17.55 16.1194 18 15.666 18 15.1119V7.05224L15.92 1.01754ZM3.85 2.01493H14.14L15.18 5.03731H2.81L3.85 2.01493ZM16 12.0896H2V7.39478L2.12 7.05224H15.89L16 7.39478V12.0896Z" fill="white"/>
</svg>
