<svg width="410" height="61" viewBox="0 0 410 61" fill="none" xmlns="http://www.w3.org/2000/svg">
<path d="M98.3516 17.6811L109.297 0.269531H117.656L129.086 17.6811H121.695L119.867 14.7262H106.956L105.511 17.6811H98.3516ZM118.516 11.28L113.596 4.39485L108.683 11.28H118.516Z" fill="#666666"/>
<path d="M264.918 17.8038L275.863 0.399414H284.222L295.659 17.8038H288.261L286.462 14.8489H273.53L272.049 17.8038H264.918ZM285.089 11.4099L280.169 4.52474L275.249 11.4099H285.089Z" fill="#666666"/>
<path d="M154.175 0.24707H147.781V17.3119H154.175V0.24707Z" fill="#666666"/>
<path d="M159.832 0.268745V17.3119H165.366V8.97456L174.101 17.3119H181.723V0.268745H175.698V11.2865L164.658 0.24707L159.832 0.268745Z" fill="#666666"/>
<path d="M186.391 0.421088V17.457H191.925V9.1269L200.652 17.457H208.274V0.421088H202.256V11.4316L191.217 0.399414L186.391 0.421088Z" fill="#666666"/>
<path d="M358.441 0.305266V17.3412H363.976V9.00386L372.703 17.3412H380.325V0.305266H374.3V11.3158L363.268 0.276367L358.441 0.305266Z" fill="#666666"/>
<path d="M218.991 0.247074H231.273C233.033 0.247074 234.722 0.946589 235.967 2.19174C237.213 3.4369 237.912 5.12568 237.912 6.88659V10.6651C237.912 12.4261 237.213 14.1149 235.967 15.36C234.722 16.6052 233.033 17.3047 231.273 17.3047H218.991C218.118 17.3056 217.254 17.1346 216.447 16.8013C215.641 16.4681 214.908 15.9792 214.291 15.3626C213.674 14.7459 213.184 14.0137 212.85 13.2076C212.516 12.4016 212.344 11.5377 212.344 10.6651V6.88659C212.344 6.01407 212.516 5.1501 212.85 4.34409C213.184 3.53807 213.674 2.80582 214.291 2.18919C214.908 1.57255 215.641 1.08363 216.447 0.75039C217.254 0.417147 218.118 0.246125 218.991 0.247074ZM218.622 8.5772V8.82284C218.621 9.37184 218.728 9.91562 218.938 10.4231C219.147 10.9306 219.455 11.3918 219.843 11.7803C220.23 12.1688 220.691 12.4771 221.198 12.6874C221.705 12.8977 222.249 13.006 222.798 13.006H226.981C228.091 13.006 229.155 12.5652 229.939 11.7808C230.723 10.9963 231.164 9.93228 231.164 8.82284V8.5772C231.164 8.02787 231.056 7.48389 230.846 6.97637C230.636 6.46885 230.327 6.00773 229.939 5.61929C229.551 5.23085 229.089 4.92271 228.582 4.71249C228.074 4.50227 227.53 4.39407 226.981 4.39407H222.798C222.249 4.39407 221.705 4.50231 221.198 4.71262C220.691 4.92293 220.23 5.23117 219.843 5.61971C219.455 6.00824 219.147 6.46945 218.938 6.97692C218.728 7.4844 218.621 8.02821 218.622 8.5772Z" fill="#666666"/>
<path d="M334.217 0.56543H346.499C348.261 0.567344 349.949 1.26847 351.194 2.51477C352.439 3.76108 353.139 5.45062 353.139 7.2122V10.9908C353.139 12.7517 352.439 14.4404 351.194 15.6856C349.949 16.9308 348.26 17.6303 346.499 17.6303H334.217C333.345 17.6312 332.48 17.4602 331.674 17.127C330.868 16.7937 330.135 16.3048 329.518 15.6882C328.9 15.0715 328.411 14.3393 328.076 13.5333C327.742 12.7272 327.57 11.8633 327.57 10.9908V7.2122C327.57 5.44937 328.271 3.75875 329.517 2.51224C330.764 1.26573 332.454 0.56543 334.217 0.56543ZM333.849 8.90279V9.17733C333.849 10.2849 334.289 11.347 335.072 12.1301C335.855 12.9133 336.917 13.3532 338.025 13.3532H342.208C342.76 13.359 343.307 13.2552 343.819 13.0479C344.331 12.8406 344.796 12.5339 345.189 12.1456C345.581 11.7572 345.892 11.295 346.105 10.7855C346.317 10.276 346.427 9.72939 346.427 9.17733V8.93169C346.427 8.38236 346.319 7.83841 346.108 7.33089C345.898 6.82337 345.59 6.36222 345.202 5.97378C344.813 5.58534 344.352 5.2772 343.845 5.06698C343.337 4.85676 342.793 4.74856 342.244 4.74856H338.061C337.511 4.7438 336.966 4.84758 336.456 5.05395C335.947 5.26032 335.483 5.56523 335.092 5.95118C334.701 6.33713 334.39 6.79651 334.176 7.30302C333.963 7.80952 333.851 8.35318 333.849 8.90279Z" fill="#666666"/>
<path d="M408.752 5.50024V5.18958C408.752 4.54287 408.625 3.90248 408.377 3.30508C408.13 2.70768 407.766 2.16499 407.309 1.70803C406.851 1.25106 406.308 0.888805 405.71 0.641974C405.112 0.395144 404.472 0.268587 403.825 0.269537H390.821C389.516 0.269537 388.264 0.787894 387.342 1.71058C386.419 2.63327 385.901 3.88471 385.901 5.18958V6.63453C385.901 7.59259 386.281 8.51141 386.959 9.18886C387.636 9.86631 388.555 10.2469 389.513 10.2469H402.359C403.486 10.2469 403.803 11.1572 403.803 12.2771C403.789 12.6769 403.638 13.0596 403.375 13.3609C403.112 13.6622 402.753 13.8637 402.359 13.9315H394.671C393.544 13.9315 392.641 13.3969 392.641 12.2771V11.8508H385.879V12.3638C385.878 13.0105 386.005 13.651 386.251 14.2488C386.498 14.8465 386.86 15.3898 387.317 15.8474C387.774 16.3051 388.317 16.6681 388.914 16.9158C389.512 17.1635 390.152 17.291 390.799 17.291H403.399C406.115 17.291 409.041 15.0875 409.041 12.3638V11.2295C409.041 10.2714 408.661 9.35259 407.983 8.67514C407.306 7.99768 406.387 7.61709 405.429 7.61709H394.238C393.717 7.61709 393.217 7.41005 392.848 7.04152C392.48 6.67299 392.273 6.17314 392.273 5.65196C392.273 5.39389 392.324 5.13836 392.422 4.89994C392.521 4.66152 392.666 4.44487 392.848 4.26239C393.031 4.07991 393.248 3.93518 393.486 3.83642C393.724 3.73767 393.98 3.68683 394.238 3.68683H400.877C401.367 3.68682 401.836 3.8807 402.183 4.22599C402.529 4.57129 402.725 5.03987 402.727 5.52915L408.752 5.50024Z" fill="#666666"/>
<path d="M0.953125 0.269531H8.32959L16.0817 13.3752L24.8092 0.269531H31.94L21.363 17.3127H11.4073L0.953125 0.269531Z" fill="#666666"/>
<path d="M37.3516 0.269531V17.3127H59.3654V14.2783H43.6226V10.5503H59.3654V7.84106H44.1139V4.0264H59.3654V0.269531H37.3516Z" fill="#666666"/>
<path d="M65.8829 8.60648C65.8829 10.9058 66.7963 13.111 68.4222 14.7369C70.048 16.3628 72.2532 17.2762 74.5526 17.2762H88.7853C90.2358 17.2762 91.6269 16.7 92.6526 15.6743C93.6782 14.6486 94.2544 13.2576 94.2544 11.8071V8.75821H79.1619V11.1279H87.8967V11.3736C87.8967 11.9848 87.6538 12.571 87.2216 13.0032C86.7894 13.4354 86.2032 13.6783 85.592 13.6783H76.7633C76.1419 13.6783 75.5265 13.5559 74.9524 13.318C74.3782 13.0802 73.8566 12.7317 73.4172 12.2922C72.9777 11.8528 72.6291 11.3311 72.3913 10.757C72.1535 10.1829 72.0311 9.56748 72.0311 8.94604V8.85935C72.0311 7.60362 72.5295 6.39922 73.4167 5.51061C74.304 4.622 75.5076 4.12183 76.7633 4.11992H86.0832C86.1733 4.11992 86.2597 4.1557 86.3234 4.21938C86.387 4.28306 86.4228 4.36942 86.4228 4.45948V6.21509H94.2833C94.2843 5.4308 94.1306 4.65402 93.8311 3.92916C93.5317 3.2043 93.0922 2.54557 92.538 1.99066C91.9838 1.43575 91.3256 0.99553 90.6011 0.695176C89.8766 0.394823 89.1 0.240234 88.3157 0.240234H74.2202C73.1229 0.240228 72.0364 0.456828 71.023 0.877625C70.0095 1.29842 69.0892 1.91513 68.3146 2.69239C67.54 3.46965 66.9265 4.39217 66.5092 5.40705C66.0919 6.42192 65.8791 7.50917 65.8829 8.60648Z" fill="#666666"/>
<path d="M240.383 0.399414L251.574 17.3125H258.091L269.405 0.399414H262.274L255.389 11.2871L247.636 0.399414H240.383Z" fill="#666666"/>
<path d="M293.258 0.269531H313.09V5.22571H306.176V17.3127H299.811V5.22571H293.258V0.269531Z" fill="#666666"/>
<path d="M322.684 0.399414H316.594V17.3125H322.684V0.399414Z" fill="#666666"/>
<path d="M107.498 53.7285V41.0385H109.37V53.7285H107.498ZM112.297 53.7285V41.0385H113.719L120.991 50.6325V41.0385H122.719V53.7285H121.333L114.025 44.0985V53.7285H112.297ZM125.674 53.7285V41.0385H133.738V42.5505H127.546V46.6005H133.36V48.1125H127.546V53.7285H125.674ZM135.641 53.7285V41.0385H137.513V53.7285H135.641ZM140.44 53.7285V41.0385H141.862L149.134 50.6325V41.0385H150.862V53.7285H149.476L142.168 44.0985V53.7285H140.44ZM153.817 53.7285V41.0385H155.689V53.7285H153.817ZM161.712 53.7285V42.6045H157.212V41.0385H168.066V42.6045H163.566V53.7285H161.712ZM169.62 53.7285V41.0385H177.828V42.5505H171.42V46.5285H177.45V48.0405H171.42V52.2165H177.828V53.7285H169.62ZM184.948 53.7285V41.0385H186.82V53.7285H184.948ZM189.783 53.7285V41.0385H191.349L196.047 49.8045L200.727 41.0385H202.257V53.7285H200.583V44.4225L196.605 51.7845H195.471L191.475 44.4585V53.7285H189.783ZM203.972 53.7285L209.624 41.0385H211.172L216.842 53.7285H214.934L213.602 50.6325H207.176L205.862 53.7285H203.972ZM210.38 43.1085L207.842 49.1205H212.972L210.416 43.1085H210.38ZM224.198 53.8905C222.818 53.8905 221.654 53.6325 220.706 53.1165C219.758 52.5885 219.038 51.8385 218.546 50.8665C218.066 49.8945 217.826 48.7365 217.826 47.3925C217.826 46.0605 218.072 44.9085 218.564 43.9365C219.056 42.9525 219.77 42.1965 220.706 41.6685C221.642 41.1405 222.764 40.8765 224.072 40.8765C224.972 40.8765 225.806 41.0085 226.574 41.2725C227.342 41.5365 227.984 41.9145 228.5 42.4065L227.834 43.8645C227.258 43.3845 226.67 43.0425 226.07 42.8385C225.47 42.6225 224.804 42.5145 224.072 42.5145C222.668 42.5145 221.6 42.9405 220.868 43.7925C220.136 44.6325 219.77 45.8325 219.77 47.3925C219.77 48.9885 220.142 50.2005 220.886 51.0285C221.642 51.8565 222.77 52.2705 224.27 52.2705C225.182 52.2705 226.088 52.1205 226.988 51.8205V48.4185H223.892V47.0145H228.554V52.9905C228.014 53.2545 227.342 53.4705 226.538 53.6385C225.746 53.8065 224.966 53.8905 224.198 53.8905ZM231.424 53.7285V41.0385H233.296V53.7285H231.424ZM236.223 53.7285V41.0385H237.645L244.917 50.6325V41.0385H246.645V53.7285H245.259L237.951 44.0985V53.7285H236.223ZM248.322 53.7285L253.974 41.0385H255.522L261.192 53.7285H259.284L257.952 50.6325H251.526L250.212 53.7285H248.322ZM254.73 43.1085L252.192 49.1205H257.322L254.766 43.1085H254.73ZM264.561 53.7285V42.6045H260.061V41.0385H270.915V42.6045H266.415V53.7285H264.561ZM272.469 53.7285V41.0385H274.341V53.7285H272.469ZM282.776 53.8905C281.564 53.8905 280.514 53.6265 279.626 53.0985C278.738 52.5585 278.048 51.8025 277.556 50.8305C277.076 49.8465 276.836 48.6945 276.836 47.3745C276.836 46.0425 277.076 44.8905 277.556 43.9185C278.048 42.9465 278.738 42.1965 279.626 41.6685C280.514 41.1405 281.564 40.8765 282.776 40.8765C283.976 40.8765 285.02 41.1405 285.908 41.6685C286.808 42.1965 287.498 42.9465 287.978 43.9185C288.47 44.8905 288.716 46.0365 288.716 47.3565C288.716 48.6885 288.47 49.8465 287.978 50.8305C287.498 51.8025 286.808 52.5585 285.908 53.0985C285.02 53.6265 283.976 53.8905 282.776 53.8905ZM282.776 52.2705C284.036 52.2705 285.014 51.8445 285.71 50.9925C286.418 50.1285 286.772 48.9225 286.772 47.3745C286.772 45.8265 286.424 44.6265 285.728 43.7745C285.032 42.9225 284.048 42.4965 282.776 42.4965C281.516 42.4965 280.532 42.9225 279.824 43.7745C279.128 44.6265 278.78 45.8265 278.78 47.3745C278.78 48.9225 279.128 50.1285 279.824 50.9925C280.532 51.8445 281.516 52.2705 282.776 52.2705ZM291.225 53.7285V41.0385H292.647L299.919 50.6325V41.0385H301.647V53.7285H300.261L292.953 44.0985V53.7285H291.225Z" fill="#666666"/>
</svg>
